<svg width="22" height="23" viewBox="0 0 22 23" fill="none" xmlns="http://www.w3.org/2000/svg">
<path d="M15.4302 13.464C15.1995 13.3455 14.0506 12.7827 13.8369 12.7065C13.6232 12.6261 13.4666 12.5881 13.3122 12.825C13.1556 13.0599 12.7113 13.5825 12.5716 13.7412C12.4362 13.8978 12.2987 13.9168 12.068 13.8005C10.6969 13.1149 9.79769 12.5775 8.89421 11.0265C8.65511 10.6139 9.1333 10.6436 9.57975 9.75277C9.65592 9.59619 9.61784 9.46289 9.55859 9.3444C9.49935 9.22591 9.03385 8.0791 8.83919 7.61149C8.65088 7.15658 8.45622 7.22005 8.31445 7.21159C8.17904 7.20312 8.02458 7.20312 7.868 7.20312C7.71143 7.20312 7.45964 7.26237 7.24593 7.493C7.03223 7.72786 6.4292 8.29281 6.4292 9.43962C6.4292 10.5864 7.26497 11.6973 7.37923 11.8538C7.49772 12.0104 9.02328 14.3633 11.3656 15.3768C12.8467 16.0158 13.4264 16.0708 14.167 15.9608C14.6177 15.8931 15.5465 15.398 15.7391 14.8499C15.9316 14.304 15.9316 13.8364 15.8745 13.7391C15.8174 13.6354 15.6608 13.5762 15.4302 13.464Z" fill="white"/>
<path d="M19.9096 7.93099C19.4314 6.79476 18.7459 5.7749 17.872 4.89893C16.9982 4.02507 15.9783 3.3374 14.84 2.86133C13.6762 2.37256 12.4405 2.125 11.1668 2.125H11.1245C9.84224 2.13135 8.60022 2.38525 7.43225 2.8846C6.30448 3.36702 5.29309 4.05257 4.42769 4.92643C3.56229 5.80029 2.8831 6.81592 2.41337 7.94792C1.92672 9.12012 1.68127 10.3664 1.68762 11.6486C1.69397 13.117 2.0452 14.5749 2.70325 15.8783V19.0944C2.70325 19.6318 3.13912 20.0677 3.67655 20.0677H6.89481C8.1982 20.7257 9.65604 21.077 11.1245 21.0833H11.1689C12.4363 21.0833 13.6656 20.8379 14.823 20.3576C15.955 19.8857 16.9728 19.2087 17.8445 18.3433C18.7184 17.4779 19.406 16.4665 19.8863 15.3387C20.3857 14.1707 20.6396 12.9287 20.646 11.6465C20.6523 10.3579 20.4026 9.10742 19.9096 7.93099ZM16.7125 17.1986C15.2293 18.667 13.2615 19.4753 11.1668 19.4753H11.1308C9.85494 19.4689 8.58752 19.1515 7.46822 18.5549L7.29048 18.4596H4.31132V15.4805L4.2161 15.3027C3.61942 14.1834 3.30204 12.916 3.29569 11.6401C3.28723 9.5306 4.09338 7.55013 5.57239 6.05843C7.04927 4.56673 9.02339 3.74154 11.1329 3.73307H11.1689C12.2268 3.73307 13.253 3.93831 14.22 4.34456C15.1637 4.74023 16.01 5.30941 16.7379 6.03727C17.4637 6.76302 18.035 7.61149 18.4306 8.55518C18.8411 9.53272 19.0463 10.5695 19.0421 11.6401C19.0294 13.7476 18.2021 15.7217 16.7125 17.1986Z" fill="white"/>
</svg>
