<svg width="35" height="43" viewBox="0 0 35 43" fill="none" xmlns="http://www.w3.org/2000/svg">
<g clip-path="url(#clip0_23_2898)">
<path d="M28.623 23.1012C28.5762 17.7929 32.8839 15.2444 33.0787 15.1202C30.6547 11.5117 26.8823 11.0174 25.5365 10.9592C22.3278 10.6288 19.2725 12.8811 17.6461 12.8811C16.0197 12.8811 13.5047 11.0068 10.8443 11.0597C7.34205 11.1125 4.11782 13.1296 2.31475 16.3177C-1.31998 22.7337 1.38723 32.2427 4.92583 37.4505C6.65876 39.9963 8.72163 42.8646 11.434 42.7588C14.0477 42.6531 15.035 41.0405 18.1891 41.0405C21.3432 41.0405 22.2317 42.7588 24.9935 42.7086C27.802 42.6531 29.5843 40.1073 31.3042 37.5536C33.2892 34.5981 34.1102 31.7377 34.1569 31.5871C34.0946 31.5606 28.6802 29.4484 28.623 23.1012Z" fill="#222222"/>
<path d="M23.435 7.35801C24.8743 5.58417 25.8459 3.11767 25.5783 0.659241C23.5049 0.743927 20.9953 2.06565 19.5065 3.8395C18.1737 5.40721 17.0046 7.91854 17.3214 10.3269C19.6338 10.5093 21.9954 9.12925 23.435 7.35801Z" fill="#222222"/>
</g>
<defs>
<clipPath id="clip0_23_2898">
<rect width="33.5833" height="41.9792" fill="white" transform="translate(0.583008 0.642395)"/>
</clipPath>
</defs>
</svg>
