<svg width="22" height="22" viewBox="0 0 22 22" fill="none" xmlns="http://www.w3.org/2000/svg">
<path fill-rule="evenodd" clip-rule="evenodd" d="M6.99221 18.1364C7.37318 18.1364 7.68284 18.446 7.68284 18.827C7.68284 19.208 7.37318 19.5167 6.99221 19.5167C6.61124 19.5167 6.30249 19.208 6.30249 18.827C6.30249 18.446 6.61124 18.1364 6.99221 18.1364Z" stroke="#FF9B03" stroke-width="1.35417" stroke-linecap="round" stroke-linejoin="round"/>
<path fill-rule="evenodd" clip-rule="evenodd" d="M17.1508 18.1364C17.5318 18.1364 17.8415 18.446 17.8415 18.827C17.8415 19.208 17.5318 19.5167 17.1508 19.5167C16.7699 19.5167 16.4602 19.208 16.4602 18.827C16.4602 18.446 16.7699 18.1364 17.1508 18.1364Z" stroke="#FF9B03" stroke-width="1.35417" stroke-linecap="round" stroke-linejoin="round"/>
<path d="M2.77417 3.17706L4.65195 3.50206L5.52132 13.8596C5.59174 14.7037 6.29681 15.3519 7.14361 15.3519H16.9947C17.8036 15.3519 18.4897 14.7579 18.6062 13.9562L19.4629 8.03581C19.5685 7.30547 19.0025 6.65185 18.2649 6.65185H4.95348" stroke="#FF9B03" stroke-width="1.35417" stroke-linecap="round" stroke-linejoin="round"/>
<path d="M13.0437 9.98859H15.5471" stroke="#FF9B03" stroke-width="1.35417" stroke-linecap="round" stroke-linejoin="round"/>
</svg>
