<svg width="17" height="17" viewBox="0 0 17 17" fill="none" xmlns="http://www.w3.org/2000/svg">
<path fill-rule="evenodd" clip-rule="evenodd" d="M3.88503 5.14543C3.88503 4.29975 4.57091 3.61386 5.41591 3.61386H6.11263C6.51617 3.61386 6.90414 3.45407 7.19122 3.16902L7.67805 2.68152C8.27456 2.0823 9.24414 2.07959 9.84336 2.6761L9.84945 2.68152L10.337 3.16902C10.6234 3.45407 11.0113 3.61386 11.4155 3.61386H12.1116C12.9573 3.61386 13.6432 4.29975 13.6432 5.14543V5.84079C13.6432 6.24569 13.8029 6.63298 14.088 6.92006L14.5755 7.40756C15.1747 8.00407 15.1781 8.97298 14.5816 9.57287L14.5755 9.57897L14.088 10.0665C13.8029 10.3522 13.6432 10.7408 13.6432 11.1444V11.8411C13.6432 12.6868 12.9573 13.372 12.1116 13.372H11.4155C11.0113 13.372 10.6234 13.5325 10.337 13.8175L9.84945 14.3043C9.25362 14.9042 8.28404 14.9069 7.68414 14.3104C7.68211 14.3084 7.68008 14.3064 7.67805 14.3043L7.19122 13.8175C6.90414 13.5325 6.51617 13.372 6.11263 13.372H5.41591C4.57091 13.372 3.88503 12.6868 3.88503 11.8411V11.1444C3.88503 10.7408 3.72456 10.3522 3.4395 10.0665L2.95268 9.57897C2.35279 8.98246 2.35008 8.01287 2.94659 7.41366L2.95268 7.40756L3.4395 6.92006C3.72456 6.63298 3.88503 6.24569 3.88503 5.84079V5.14543Z" stroke="#FF9B03" stroke-width="0.902778" stroke-linecap="round" stroke-linejoin="round"/>
<path d="M7.02368 10.2328L10.5039 6.75262" stroke="#FF9B03" stroke-width="0.902778" stroke-linecap="round" stroke-linejoin="round"/>
<path d="M10.5017 10.7426C10.3663 10.7426 10.2376 10.6885 10.1429 10.5937C10.0955 10.5463 10.0616 10.4853 10.0345 10.4244C10.0074 10.3635 9.9939 10.3032 9.9939 10.2348C9.9939 10.1671 10.0074 10.0994 10.0345 10.0385C10.0616 9.97751 10.0955 9.92335 10.1429 9.87595C10.3324 9.68637 10.671 9.68637 10.8606 9.87595C10.908 9.92335 10.9486 9.97751 10.9757 10.0385C10.996 10.0994 11.0095 10.1671 11.0095 10.2348C11.0095 10.3032 10.996 10.3635 10.9757 10.4244C10.9486 10.4853 10.908 10.5463 10.8606 10.5937C10.7658 10.6885 10.6371 10.7426 10.5017 10.7426Z" fill="#008ECC"/>
<path d="M7.02148 7.26278C6.95378 7.26278 6.89284 7.24856 6.8319 7.22148C6.77096 7.19439 6.71003 7.16122 6.66263 7.11382C6.61523 7.05965 6.58138 7.00549 6.5543 6.94455C6.52721 6.88294 6.51367 6.82268 6.51367 6.75497C6.51367 6.68658 6.52721 6.61955 6.5543 6.55861C6.58138 6.49768 6.61523 6.43674 6.66263 6.39611C6.85898 6.20585 7.19076 6.20585 7.38034 6.39611C7.47513 6.49023 7.5293 6.61955 7.5293 6.75497C7.5293 6.82268 7.52253 6.88294 7.49544 6.94455C7.46836 7.00549 7.42773 7.05965 7.38034 7.11382C7.33294 7.16122 7.27878 7.19439 7.21784 7.22148C7.1569 7.24856 7.08919 7.26278 7.02148 7.26278Z" fill="#008ECC"/>
</svg>
