<svg width="103" height="32" viewBox="0 0 103 32" fill="none" xmlns="http://www.w3.org/2000/svg">
<g clip-path="url(#clip0_23_2933)">
<path d="M0.0136719 0.645874H102.93V31.3403H0.0136719V0.645874Z" fill="#FFC915"/>
<path d="M42.4927 9.78882C44.1051 9.78882 45.6602 10.3317 46.8381 11.2923V10.0077H49.0479V23.9878H46.8381V22.7089C45.6803 23.6638 44.1251 24.2038 42.4927 24.2038C40.4915 24.2038 38.6705 23.4677 37.3669 22.132C36.0747 20.8132 35.3657 18.9943 35.3657 17.0077C35.3657 15.0182 36.0776 13.1936 37.3669 11.8692C38.6733 10.5278 40.4944 9.78882 42.4927 9.78882ZM27.1953 9.73766C29.0049 9.73766 30.6459 10.3942 31.8208 11.5907C33.0701 12.8639 33.7362 14.6516 33.7505 16.7661V17.4852H22.3696C22.5069 20.1112 24.5223 22.0609 27.1438 22.0609C29.0249 22.0609 30.3714 21.2623 31.3834 19.5485L31.5063 19.341L33.4217 20.566L33.3102 20.7564C32.0124 22.9761 29.8797 24.1498 27.141 24.1498C23.01 24.1498 20.1255 21.1912 20.1255 16.9565C20.1255 12.773 23.0986 9.73766 27.1953 9.73766ZM85.9807 9.73766C87.7903 9.73766 89.4313 10.3942 90.6062 11.5907C91.8555 12.8639 92.5216 14.6516 92.5359 16.7661V17.4852H81.1551C81.2923 20.1112 83.3077 22.0609 85.9293 22.0609C87.8103 22.0609 89.1568 21.2623 90.1688 19.5485L90.2918 19.341L92.2072 20.566L92.0957 20.7564C90.7978 22.9761 88.6651 24.1498 85.9264 24.1498C81.7954 24.1498 78.9109 21.1912 78.9081 16.9565C78.9081 12.773 81.8841 9.73766 85.9807 9.73766ZM19.2736 9.97924V12.0682H12.8699V23.985H10.6343V9.97924H19.2736ZM71.8125 9.78882C75.0144 9.78882 77.0041 11.9744 77.0041 15.4929V23.9594H74.7685V15.4929C74.7685 13.2959 73.5021 11.8777 71.5409 11.8777C69.0195 11.8777 68.1218 13.6057 68.1218 15.2229V23.9623H65.8862V15.4957C65.8862 13.2647 64.6598 11.8806 62.6844 11.8806C61.0577 11.8806 59.3196 13.1368 59.3196 15.0069V23.9537H57.084V9.97639H59.3196V11.3321C60.243 10.3317 61.558 9.78882 63.0932 9.78882C65.3659 9.78882 66.6095 10.9313 67.2785 12.0142C68.2962 10.596 69.9257 9.78882 71.8125 9.78882ZM54.1823 5.85254V23.9594H51.9467V5.85254H54.1823ZM42.3812 12.0142C39.6568 12.0142 37.6013 14.1628 37.6013 17.0105C37.6013 19.8441 39.6568 21.9785 42.3812 21.9813C45.2086 21.9813 47.1068 19.9834 47.1068 17.0105C47.1068 14.0235 45.2086 12.0142 42.3812 12.0142ZM27.1438 11.8237C24.8911 11.8237 23.01 13.313 22.4726 15.4787H31.4778C31.0832 13.2817 29.3737 11.8237 27.1438 11.8237ZM85.9264 11.8237C83.6737 11.8237 81.7926 13.313 81.2551 15.4787H90.2603C89.8658 13.2817 88.1562 11.8237 85.9264 11.8237Z" fill="#111111"/>
</g>
<defs>
<clipPath id="clip0_23_2933">
<rect width="102.917" height="30.6944" fill="white" transform="translate(0.0136719 0.645874)"/>
</clipPath>
</defs>
</svg>
