<svg width="17" height="17" viewBox="0 0 17 17" fill="none" xmlns="http://www.w3.org/2000/svg">
<g clip-path="url(#clip0_23_3130)">
<path d="M5.611 13.2326C5.97015 13.2326 6.31459 13.09 6.56854 12.836C6.8225 12.582 6.96517 12.2376 6.96517 11.8785C6.96517 11.5193 6.8225 11.1749 6.56854 10.9209C6.31459 10.667 5.97015 10.5243 5.611 10.5243C5.25186 10.5243 4.90742 10.667 4.65346 10.9209C4.39951 11.1749 4.25684 11.5193 4.25684 11.8785C4.25684 12.2376 4.39951 12.582 4.65346 12.836C4.90742 13.09 5.25186 13.2326 5.611 13.2326V13.2326ZM12.3818 13.2326C12.741 13.2326 13.0854 13.09 13.3394 12.836C13.5933 12.582 13.736 12.2376 13.736 11.8785C13.736 11.5193 13.5933 11.1749 13.3394 10.9209C13.0854 10.667 12.741 10.5243 12.3818 10.5243C12.0227 10.5243 11.6783 10.667 11.4243 10.9209C11.1703 11.1749 11.0277 11.5193 11.0277 11.8785C11.0277 12.2376 11.1703 12.582 11.4243 12.836C11.6783 13.09 12.0227 13.2326 12.3818 13.2326V13.2326Z" stroke="#FF9B03" stroke-width="0.902778" stroke-miterlimit="1.5" stroke-linecap="round" stroke-linejoin="round"/>
<path d="M6.99919 11.8785H10.3507V4.83679C10.3507 4.72905 10.3079 4.62572 10.2318 4.54953C10.1556 4.47334 10.0522 4.43054 9.9445 4.43054H0.871582M4.02002 11.8785H2.632C2.57865 11.8785 2.52582 11.868 2.47653 11.8475C2.42725 11.8271 2.38246 11.7972 2.34474 11.7595C2.30701 11.7217 2.27709 11.677 2.25667 11.6277C2.23626 11.5784 2.22575 11.5256 2.22575 11.4722V8.1545" stroke="#FF9B03" stroke-width="0.902778" stroke-linecap="round"/>
<path d="M1.54883 6.46179H4.25716" stroke="#FF9B03" stroke-width="0.902778" stroke-linecap="round" stroke-linejoin="round"/>
<path d="M10.3506 6.46179H14.149C14.2276 6.46181 14.3044 6.48459 14.3702 6.52737C14.4361 6.57015 14.4881 6.63109 14.5201 6.70283L15.732 9.43013C15.7551 9.48191 15.7671 9.53796 15.7673 9.59466V11.4722C15.7673 11.5256 15.7567 11.5784 15.7363 11.6277C15.7159 11.677 15.686 11.7217 15.6483 11.7595C15.6105 11.7972 15.5658 11.8271 15.5165 11.8475C15.4672 11.868 15.4144 11.8785 15.361 11.8785H14.0745M10.3506 11.8785H11.0277" stroke="#FF9B03" stroke-width="0.902778" stroke-linecap="round"/>
</g>
<defs>
<clipPath id="clip0_23_3130">
<rect width="16.25" height="16.25" fill="white" transform="translate(0.194336 0.368042)"/>
</clipPath>
</defs>
</svg>
