<svg width="17" height="17" viewBox="0 0 17 17" fill="none" xmlns="http://www.w3.org/2000/svg">
<path fill-rule="evenodd" clip-rule="evenodd" d="M3.39795 7.40394C3.4077 4.53271 5.7432 2.21302 8.61443 2.22275C11.4857 2.23253 13.8053 4.56803 13.7956 7.43926V7.49814C13.7603 9.36454 12.7181 11.0896 11.4405 12.4379C10.7098 13.1967 9.89389 13.8684 9.00891 14.4397C8.77227 14.6444 8.42127 14.6444 8.18463 14.4397C6.86534 13.581 5.70744 12.4968 4.76389 11.2368C3.92293 10.1381 3.44546 8.80444 3.39795 7.4216V7.40394Z" stroke="#FF9B03" stroke-width="0.902778" stroke-linecap="round" stroke-linejoin="round"/>
<path d="M8.59688 9.1702C9.5171 9.1702 10.2631 8.42421 10.2631 7.50398C10.2631 6.58376 9.5171 5.83777 8.59688 5.83777C7.67665 5.83777 6.93066 6.58376 6.93066 7.50398C6.93066 8.42421 7.67665 9.1702 8.59688 9.1702Z" stroke="#FF9B03" stroke-width="0.902778" stroke-linecap="round" stroke-linejoin="round"/>
</svg>
