<svg width="62" height="62" viewBox="0 0 62 62" fill="none" xmlns="http://www.w3.org/2000/svg">
<g clip-path="url(#clip0_23_2937)">
<path fill-rule="evenodd" clip-rule="evenodd" d="M22.7562 42.0421V28.5226C22.7562 28.3684 22.9108 28.2143 23.0655 28.2143H28.3296C28.4842 28.2143 28.6389 28.3684 28.6389 28.5226V42.0421C28.6389 42.2507 28.4509 42.3807 28.2356 42.3807H23.1595C22.9442 42.3807 22.7562 42.2507 22.7562 42.0421ZM33.7574 0.64917H33.8726C34.1395 0.652193 34.3699 0.679401 34.6732 0.679401C34.8278 0.679401 34.9855 0.676378 35.1401 0.679401C35.319 0.682425 35.3736 0.712656 35.5707 0.712656C35.7223 0.712656 35.8861 0.70661 36.0377 0.709633C36.1984 0.715679 36.25 0.742888 36.438 0.742888C36.7503 0.742888 37.0202 0.75498 37.3355 0.773119L38.1694 0.836605C38.5727 0.839628 39.4187 0.921253 39.8372 0.963578C41.9113 1.18124 44.0278 1.4503 46.0079 2.03377C46.2566 2.10633 46.4779 2.16074 46.7266 2.24237C47.3997 2.46004 48.0699 2.68375 48.7188 2.94072C49.1554 3.11304 49.5527 3.32466 49.9833 3.5C50.3896 3.66627 50.7686 3.91417 51.1537 4.12579C51.554 4.34346 51.9027 4.57926 52.2757 4.82716L53.8222 6.00015C54.2406 6.32665 55.3019 7.34242 55.6476 7.78985L56.06 8.27355C56.8818 9.30747 57.5974 10.3716 58.2008 11.5718C58.8346 12.8325 59.3167 14.1415 59.7139 15.4959C60.3325 17.606 60.5508 19.4501 60.8238 21.6117L61.1421 27.1592C61.1391 27.5915 61.0997 28.0903 61.1452 28.5135C61.2089 29.0758 61.1907 32.616 61.1421 33.2115C61.1058 33.6559 61.1421 34.1487 61.1421 34.5991C61.1421 34.7896 61.1088 34.838 61.1088 35.0284L61.0785 36.3888C61.0785 36.5793 61.0451 36.6277 61.0451 36.8181C61.0451 37.3986 60.9602 38.7136 60.8874 39.406L60.6085 41.8759C60.3477 43.6988 59.9868 45.422 59.435 47.1543C58.8194 49.0831 57.8946 51.0269 56.6756 52.6443C56.6028 52.7441 56.5573 52.8136 56.4815 52.9134C56.0236 53.515 55.5263 54.1015 54.9896 54.6366C54.5261 55.1022 54.0393 55.5441 53.5311 55.9607L53.0277 56.3537C52.585 56.6833 52.1271 57.0128 51.648 57.2939L50.7808 57.7867C50.6655 57.8472 50.6049 57.8895 50.4806 57.953C49.016 58.6755 48.4307 58.8811 46.863 59.4101C46.4051 59.5643 45.926 59.6792 45.4318 59.8031C40.8287 60.9519 35.2038 61.0185 29.8093 61.0185C24.9304 61.0185 20.1696 60.7615 16.2731 59.7911C14.76 59.4132 12.6162 58.7239 11.2001 57.9046C11.1061 57.8502 11.0151 57.8169 10.912 57.7595C9.55961 57.0067 9.12295 56.6409 8.02829 55.7884C7.96461 55.74 7.96765 55.7461 7.91003 55.6917L7.41274 55.2593C6.90028 54.7696 6.26956 54.165 5.842 53.6148L5.02934 52.5748C4.21365 51.4955 3.589 50.2712 3.03712 49.0377L2.76724 48.3817C2.68234 48.1459 2.60653 47.9615 2.52769 47.7257C2.45492 47.505 2.35485 47.2692 2.29117 47.0364C2.22446 46.7915 2.13956 46.5557 2.07588 46.3259C1.93942 45.8392 1.82116 45.3706 1.70291 44.8748C1.46335 43.856 1.29354 42.8312 1.1389 41.7338C1.04489 41.0717 0.80231 39.0432 0.799278 38.3992C0.796246 37.719 0.69618 36.8998 0.674954 36.2075C0.671921 36.0563 0.677986 35.8961 0.677986 35.7419C0.677986 35.5514 0.644631 35.5031 0.644631 35.3126L0.614308 32.1323C0.614308 31.8269 0.583984 31.6002 0.583984 31.2676C0.583984 30.0312 0.620372 28.8552 0.614308 27.5945C0.614308 27.398 0.64463 27.3436 0.647663 27.1652C0.653727 26.5636 0.690115 24.5834 0.76289 24.0695C0.820504 23.6553 0.805343 22.8603 0.88115 22.3372C0.923603 22.0561 0.9327 21.7659 0.95999 21.4877C1.18741 19.1478 1.59677 16.7716 2.33059 14.5829C2.78241 13.2315 3.32216 11.9709 4.01352 10.7344L4.71702 9.61281C5.08999 9.05655 5.49632 8.54866 5.91781 8.0317L6.55459 7.30917C6.83963 6.98569 7.20047 6.69849 7.49764 6.3992C8.16778 5.72202 9.64451 4.69414 10.4147 4.2437C13.0953 2.67468 15.6363 1.97331 18.6505 1.40496C19.5723 1.22961 21.3856 0.981716 22.3226 0.930323C22.7592 0.906138 23.1716 0.839628 23.6234 0.836605C24.048 0.833582 24.7636 0.742888 25.3579 0.742888C25.555 0.742888 25.6096 0.712656 25.7885 0.709633C25.9431 0.70661 26.1008 0.712656 26.2555 0.712656C26.4344 0.709633 26.489 0.679401 26.6861 0.679401L33.7574 0.64917V0.64917ZM43.2212 42.0119V19.695C43.2212 19.4834 43.3637 19.2929 43.5608 19.2929H48.546C48.743 19.2929 48.8856 19.4834 48.8856 19.695V42.0119C48.8856 42.2326 48.6854 42.3838 48.452 42.3838H43.6518C43.4183 42.3838 43.2182 42.2326 43.2182 42.0119H43.2212ZM17.8651 42.3838H13.0346C12.8193 42.3838 12.6313 42.2538 12.6313 42.0452V19.6346C12.6313 19.4532 12.792 19.296 12.971 19.296C18.1501 19.296 23.4051 19.3262 28.5752 19.296L29.5971 19.3262C29.7639 19.3292 29.779 19.3534 29.9367 19.3594L31.2436 19.4471C31.4801 19.4713 31.6712 19.4894 31.8895 19.5136C32.2928 19.559 32.7295 19.6255 33.1146 19.7132C35.5616 20.2603 36.9686 21.0192 37.9056 23.3953C38.6879 25.3755 38.7637 28.7191 38.7637 30.9986V42.018C38.7637 42.2386 38.5636 42.3898 38.3301 42.3898H33.53C32.9842 42.3898 33.0964 41.8366 33.0964 41.3105V30.6932C33.0964 29.1726 33.1327 26.8085 32.1715 25.5327C31.2224 24.2721 29.1331 24.0877 27.523 24.0877H18.699C18.2199 24.0877 18.2654 24.5411 18.2654 24.8283C18.2684 26.7027 18.3048 41.9938 18.2502 42.16C18.229 42.2235 18.1592 42.3021 18.1107 42.3293C18.0531 42.3626 17.9591 42.3898 17.8621 42.3898L17.8651 42.3838Z" fill="#FF6900"/>
</g>
<defs>
<clipPath id="clip0_23_2937">
<rect width="60.4861" height="60.4861" fill="white" transform="translate(0.638672 0.645874)"/>
</clipPath>
</defs>
</svg>
