<svg width="15" height="15" viewBox="0 0 15 15" fill="none" xmlns="http://www.w3.org/2000/svg">
<path fill-rule="evenodd" clip-rule="evenodd" d="M14.7643 1.53127C14.7643 1.90521 14.4611 2.20836 14.0872 2.20836L0.996907 2.20835C0.622965 2.20835 0.319824 1.90521 0.319824 1.53127C0.319824 1.15733 0.622965 0.854187 0.996907 0.854187L14.0872 0.854188C14.4611 0.854188 14.7643 1.15733 14.7643 1.53127ZM14.7643 7.85063C14.7643 8.22457 14.4611 8.52771 14.0872 8.52771L0.996907 8.52771C0.622965 8.52771 0.319824 8.22457 0.319824 7.85063C0.319824 7.47668 0.622965 7.17354 0.996907 7.17354L14.0872 7.17354C14.4611 7.17354 14.7643 7.47669 14.7643 7.85063ZM14.0872 14.8473C14.4611 14.8473 14.7643 14.5442 14.7643 14.1702C14.7643 13.7963 14.4611 13.4932 14.0872 13.4932L0.996907 13.4932C0.622965 13.4932 0.319824 13.7963 0.319824 14.1702C0.319824 14.5442 0.622965 14.8473 0.996907 14.8473L14.0872 14.8473Z" fill="#FFC746"/>
</svg>
